{
	"asset":{
		"generator":"Khronos glTF Blender I/O v5.2.40",
		"version":"2.0"
	},
	"scene":0,
	"scenes":[
		{
			"name":"Scene",
			"nodes":[
				4
			]
		}
	],
	"nodes":[
		{
			"mesh":0,
			"name":"Cube"
		},
		{
			"children":[
				0
			],
			"name":"CardboardBox_Mesh"
		},
		{
			"mesh":1,
			"name":"Cube.001"
		},
		{
			"children":[
				2
			],
			"name":"CardboardBox_Shape"
		},
		{
			"children":[
				1,
				3
			],
			"extras":{
				"mass":1
			},
			"name":"CardboardBox_RigidBody"
		}
	],
	"materials":[
		{
			"doubleSided":true,
			"name":"Box",
			"normalTexture":{
				"index":0
			},
			"pbrMetallicRoughness":{
				"baseColorTexture":{
					"index":1
				},
				"metallicFactor":0,
				"metallicRoughnessTexture":{
					"index":2
				}
			}
		}
	],
	"meshes":[
		{
			"name":"Cube.004",
			"primitives":[
				{
					"attributes":{
						"POSITION":0,
						"NORMAL":1,
						"TEXCOORD_0":2
					},
					"indices":3,
					"material":0
				}
			]
		},
		{
			"name":"Cube.001",
			"primitives":[
				{
					"attributes":{
						"POSITION":4,
						"NORMAL":5,
						"TEXCOORD_0":6
					},
					"indices":7
				}
			]
		}
	],
	"textures":[
		{
			"sampler":0,
			"source":0
		},
		{
			"sampler":0,
			"source":1
		},
		{
			"sampler":0,
			"source":2
		}
	],
	"images":[
		{
			"mimeType":"image/jpeg",
			"name":"Cardboard003_1K_NormalDX",
			"uri":"textures/Cardboard003_1K_NormalDX.jpg"
		},
		{
			"mimeType":"image/jpeg",
			"name":"Cardboard003_1K_Color",
			"uri":"textures/Cardboard003_1K_Color.jpg"
		},
		{
			"mimeType":"image/png",
			"name":"Cardboard003_1K_Roughness",
			"uri":"textures/Cardboard003_1K_Roughness.png"
		}
	],
	"accessors":[
		{
			"bufferView":0,
			"componentType":5126,
			"count":178,
			"max":[
				0.15000000596046448,
				0.1771833747625351,
				0.15000000596046448
			],
			"min":[
				-0.15000000596046448,
				-0.12281663715839386,
				-0.14999999105930328
			],
			"type":"VEC3"
		},
		{
			"bufferView":1,
			"componentType":5126,
			"count":178,
			"type":"VEC3"
		},
		{
			"bufferView":2,
			"componentType":5126,
			"count":178,
			"type":"VEC2"
		},
		{
			"bufferView":3,
			"componentType":5123,
			"count":900,
			"type":"SCALAR"
		},
		{
			"bufferView":4,
			"componentType":5126,
			"count":14,
			"max":[
				0.15000000596046448,
				0.1771833747625351,
				0.15000000596046448
			],
			"min":[
				-0.15000000596046448,
				-0.12281663715839386,
				-0.14999999105930328
			],
			"type":"VEC3"
		},
		{
			"bufferView":5,
			"componentType":5126,
			"count":14,
			"type":"VEC3"
		},
		{
			"bufferView":6,
			"componentType":5126,
			"count":14,
			"type":"VEC2"
		},
		{
			"bufferView":7,
			"componentType":5123,
			"count":36,
			"type":"SCALAR"
		}
	],
	"bufferViews":[
		{
			"buffer":0,
			"byteLength":2136,
			"byteOffset":0,
			"target":34962
		},
		{
			"buffer":0,
			"byteLength":2136,
			"byteOffset":2136,
			"target":34962
		},
		{
			"buffer":0,
			"byteLength":1424,
			"byteOffset":4272,
			"target":34962
		},
		{
			"buffer":0,
			"byteLength":1800,
			"byteOffset":5696,
			"target":34963
		},
		{
			"buffer":0,
			"byteLength":168,
			"byteOffset":7496,
			"target":34962
		},
		{
			"buffer":0,
			"byteLength":168,
			"byteOffset":7664,
			"target":34962
		},
		{
			"buffer":0,
			"byteLength":112,
			"byteOffset":7832,
			"target":34962
		},
		{
			"buffer":0,
			"byteLength":72,
			"byteOffset":7944,
			"target":34963
		}
	],
	"samplers":[
		{
			"magFilter":9729,
			"minFilter":9987
		}
	],
	"buffers":[
		{
			"byteLength":8016,
			"uri":"Cardboard.bin"
		}
	]
}
