{
    "asset" : {
        "generator" : "Khronos glTF Blender I/O v3.2.43",
        "version" : "2.0"
    },
    "scene" : 0,
    "scenes" : [
        {
            "name" : "Scene",
            "nodes" : [
                4
            ]
        }
    ],
    "nodes" : [
        {
            "mesh" : 0,
            "name" : "Road"
        },
        {
            "children" : [
                0
            ],
            "name" : "Street_Mesh"
        },
        {
            "mesh" : 1,
            "name" : "Cube.001"
        },
        {
            "children" : [
                2
            ],
            "name" : "Street_Shape",
            "translation" : [
                0,
                0.025,
                0
            ]
        },
        {
            "children" : [
                1,
                3
            ],
            "extras" : {
                "mass" : 0
            },
            "name" : "Street_RigidBody"
        }
    ],
    "materials" : [
        {
            "doubleSided" : true,
            "name" : "Asphalt",
            "normalTexture" : {
                "index" : 0
            },
            "pbrMetallicRoughness" : {
                "baseColorTexture" : {
                    "index" : 1
                },
                "metallicRoughnessTexture" : {
                    "index" : 2
                }
            }
        }
    ],
    "meshes" : [
        {
            "name" : "Cube",
            "primitives" : [
                {
                    "attributes" : {
                        "POSITION" : 0,
                        "NORMAL" : 1,
                        "TEXCOORD_0" : 2
                    },
                    "indices" : 3,
                    "material" : 0
                }
            ]
        },
        {
            "name" : "Cube.006",
            "primitives" : [
                {
                    "attributes" : {
                        "POSITION" : 4,
                        "NORMAL" : 5,
                        "TEXCOORD_0" : 6
                    },
                    "indices" : 7
                }
            ]
        }
    ],
    "textures" : [
        {
            "sampler" : 0,
            "source" : 0
        },
        {
            "sampler" : 0,
            "source" : 1
        },
        {
            "sampler" : 0,
            "source" : 2
        }
    ],
    "images" : [
        {
            "mimeType" : "image/png",
            "name" : "Export_normal.tif",
            "uri" : "textures/Export_normal_tif.png"
        },
        {
            "mimeType" : "image/png",
            "name" : "Export_baseColor.tif",
            "uri" : "textures/Export_baseColor_tif.png"
        },
        {
            "mimeType" : "image/png",
            "name" : "Export_metallic.tif-Export_roughness.tif",
            "uri" : "textures/Export_metallic_tif-Export_roughness_tif.png"
        }
    ],
    "accessors" : [
        {
            "bufferView" : 0,
            "componentType" : 5126,
            "count" : 24,
            "max" : [
                500,
                0.5249999761581421,
                500
            ],
            "min" : [
                -500,
                -0.4750000238418579,
                -500
            ],
            "type" : "VEC3"
        },
        {
            "bufferView" : 1,
            "componentType" : 5126,
            "count" : 24,
            "type" : "VEC3"
        },
        {
            "bufferView" : 2,
            "componentType" : 5126,
            "count" : 24,
            "type" : "VEC2"
        },
        {
            "bufferView" : 3,
            "componentType" : 5123,
            "count" : 36,
            "type" : "SCALAR"
        },
        {
            "bufferView" : 4,
            "componentType" : 5126,
            "count" : 24,
            "max" : [
                500,
                0.5,
                500
            ],
            "min" : [
                -500,
                -0.5,
                -500
            ],
            "type" : "VEC3"
        },
        {
            "bufferView" : 5,
            "componentType" : 5126,
            "count" : 24,
            "type" : "VEC3"
        },
        {
            "bufferView" : 6,
            "componentType" : 5126,
            "count" : 24,
            "type" : "VEC2"
        },
        {
            "bufferView" : 7,
            "componentType" : 5123,
            "count" : 36,
            "type" : "SCALAR"
        }
    ],
    "bufferViews" : [
        {
            "buffer" : 0,
            "byteLength" : 288,
            "byteOffset" : 0
        },
        {
            "buffer" : 0,
            "byteLength" : 288,
            "byteOffset" : 288
        },
        {
            "buffer" : 0,
            "byteLength" : 192,
            "byteOffset" : 576
        },
        {
            "buffer" : 0,
            "byteLength" : 72,
            "byteOffset" : 768
        },
        {
            "buffer" : 0,
            "byteLength" : 288,
            "byteOffset" : 840
        },
        {
            "buffer" : 0,
            "byteLength" : 288,
            "byteOffset" : 1128
        },
        {
            "buffer" : 0,
            "byteLength" : 192,
            "byteOffset" : 1416
        },
        {
            "buffer" : 0,
            "byteLength" : 72,
            "byteOffset" : 1608
        }
    ],
    "samplers" : [
        {
            "magFilter" : 9729,
            "minFilter" : 9987
        }
    ],
    "buffers" : [
        {
            "byteLength" : 1680,
            "uri" : "map.bin"
        }
    ]
}
