{
	"asset":{
		"generator":"Khronos glTF Blender I/O v5.2.40",
		"version":"2.0"
	},
	"extensionsUsed":[
		"KHR_materials_emissive_strength",
		"KHR_lights_punctual"
	],
	"extensionsRequired":[
		"KHR_lights_punctual"
	],
	"extensions":{
		"KHR_lights_punctual":{
			"lights":[
				{
					"color":[
						0.5765593647956848,
						0.8396236300468445,
						1
					],
					"intensity":1,
					"type":"directional",
					"name":"Sun"
				},
				{
					"color":[
						1,
						0.7969769239425659,
						0.23468074202537537
					],
					"intensity":2,
					"type":"directional",
					"name":"Sun.001"
				}
			]
		}
	},
	"scene":0,
	"scenes":[
		{
			"name":"Scene",
			"nodes":[
				0,
				5,
				6,
				7
			]
		}
	],
	"nodes":[
		{
			"mesh":0,
			"name":"Road_RigidBody",
			"translation":[
				-500,
				0,
				0
			]
		},
		{
			"extensions":{
				"KHR_lights_punctual":{
					"light":0
				}
			},
			"name":"Moonlight",
			"rotation":[
				0,
				0.9914448857307434,
				0.13052625954151154,
				1.6152688431247952e-07
			],
			"scale":[
				4.052057266235352,
				4.052057266235352,
				3.999999761581421
			]
		},
		{
			"children":[
				1
			],
			"mesh":1,
			"name":"Moon",
			"translation":[
				0,
				-500,
				0
			]
		},
		{
			"extensions":{
				"KHR_lights_punctual":{
					"light":1
				}
			},
			"name":"Sunlight",
			"rotation":[
				0,
				0.9914448857307434,
				0.13052625954151154,
				1.6152688431247952e-07
			],
			"scale":[
				4,
				3.999999761581421,
				3.999999761581421
			]
		},
		{
			"children":[
				3
			],
			"mesh":2,
			"name":"Sun",
			"translation":[
				0,
				500,
				0
			]
		},
		{
			"children":[
				2,
				4
			],
			"name":"SkyPivot",
			"translation":[
				0,
				0,
				-2500
			]
		},
		{
			"name":"Spawn",
			"translation":[
				-474.3351135253906,
				5.7744927406311035,
				0
			]
		},
		{
			"mesh":3,
			"name":"Terrain_RigidBody"
		}
	],
	"materials":[
		{
			"doubleSided":true,
			"name":"Road.001",
			"normalTexture":{
				"index":0
			},
			"pbrMetallicRoughness":{
				"baseColorTexture":{
					"index":1
				},
				"metallicFactor":0,
				"metallicRoughnessTexture":{
					"index":2
				}
			}
		},
		{
			"doubleSided":true,
			"name":"RoadSide",
			"pbrMetallicRoughness":{
				"baseColorFactor":[
					0.010830884799361229,
					0.01144689042121172,
					0.012319965288043022,
					1
				],
				"metallicFactor":0
			}
		},
		{
			"doubleSided":true,
			"emissiveFactor":[
				1,
				1,
				1
			],
			"emissiveTexture":{
				"index":3
			},
			"extensions":{
				"KHR_materials_emissive_strength":{
					"emissiveStrength":2
				}
			},
			"name":"Moon",
			"pbrMetallicRoughness":{
				"baseColorTexture":{
					"index":4
				},
				"metallicFactor":0
			}
		},
		{
			"doubleSided":true,
			"emissiveFactor":[
				1,
				1,
				1
			],
			"emissiveTexture":{
				"index":5
			},
			"extensions":{
				"KHR_materials_emissive_strength":{
					"emissiveStrength":5
				}
			},
			"name":"Sun",
			"pbrMetallicRoughness":{
				"baseColorTexture":{
					"index":6
				},
				"metallicFactor":0,
				"roughnessFactor":0.5
			}
		},
		{
			"doubleSided":true,
			"name":"TerrainLowRes",
			"normalTexture":{
				"index":7
			},
			"pbrMetallicRoughness":{
				"baseColorTexture":{
					"index":8
				},
				"metallicFactor":0,
				"metallicRoughnessTexture":{
					"index":9
				}
			}
		}
	],
	"meshes":[
		{
			"name":"Plane.004",
			"primitives":[
				{
					"attributes":{
						"POSITION":0,
						"NORMAL":1,
						"TEXCOORD_0":2
					},
					"indices":3,
					"material":0
				},
				{
					"attributes":{
						"POSITION":4,
						"NORMAL":5,
						"TEXCOORD_0":6
					},
					"indices":7,
					"material":1
				}
			]
		},
		{
			"name":"Sphere",
			"primitives":[
				{
					"attributes":{
						"POSITION":8,
						"NORMAL":9,
						"TEXCOORD_0":10
					},
					"indices":11,
					"material":2
				}
			]
		},
		{
			"name":"Sphere.001",
			"primitives":[
				{
					"attributes":{
						"POSITION":12,
						"NORMAL":13,
						"TEXCOORD_0":14
					},
					"indices":15,
					"material":3
				}
			]
		},
		{
			"name":"Plane.001",
			"primitives":[
				{
					"attributes":{
						"POSITION":16,
						"NORMAL":17,
						"TEXCOORD_0":18
					},
					"indices":19,
					"material":4
				}
			]
		}
	],
	"textures":[
		{
			"sampler":0,
			"source":0
		},
		{
			"sampler":0,
			"source":1
		},
		{
			"sampler":0,
			"source":2
		},
		{
			"sampler":0,
			"source":3
		},
		{
			"sampler":0,
			"source":3
		},
		{
			"sampler":0,
			"source":4
		},
		{
			"sampler":0,
			"source":4
		},
		{
			"sampler":0,
			"source":5
		},
		{
			"sampler":0,
			"source":6
		},
		{
			"sampler":0,
			"source":7
		}
	],
	"images":[
		{
			"mimeType":"image/jpeg",
			"name":"Road009C_2K-JPG_NormalGL",
			"uri":"Road009C_2K-JPG_NormalGL.jpg"
		},
		{
			"mimeType":"image/jpeg",
			"name":"Road009C_2K-JPG_Color",
			"uri":"Road009C_2K-JPG_Color.jpg"
		},
		{
			"mimeType":"image/png",
			"name":"Road009C_2K-JPG_Roughness",
			"uri":"Road009C_2K-JPG_Roughness.png"
		},
		{
			"mimeType":"image/png",
			"name":"moon_color",
			"uri":"moon_color.png"
		},
		{
			"mimeType":"image/jpeg",
			"name":"sun_diffuse",
			"uri":"sun_diffuse.jpg"
		},
		{
			"mimeType":"image/png",
			"name":"grass_ground_nor_gl_1k",
			"uri":"grass_ground_nor_gl_1k.png"
		},
		{
			"mimeType":"image/jpeg",
			"name":"grass_ground_diff_1k",
			"uri":"grass_ground_diff_1k.jpg"
		},
		{
			"mimeType":"image/png",
			"name":"grass_ground_rough_1k",
			"uri":"grass_ground_rough_1k.png"
		}
	],
	"accessors":[
		{
			"bufferView":0,
			"componentType":5126,
			"count":10022,
			"max":[
				1000.0108642578125,
				12.011857986450195,
				3
			],
			"min":[
				-0.03703226521611214,
				-14.742258071899414,
				-3
			],
			"type":"VEC3"
		},
		{
			"bufferView":1,
			"componentType":5126,
			"count":10022,
			"type":"VEC3"
		},
		{
			"bufferView":2,
			"componentType":5126,
			"count":10022,
			"type":"VEC2"
		},
		{
			"bufferView":3,
			"componentType":5123,
			"count":48096,
			"type":"SCALAR"
		},
		{
			"bufferView":4,
			"componentType":5126,
			"count":4016,
			"max":[
				1000.0108642578125,
				11.861839294433594,
				3
			],
			"min":[
				-0.03703226521611214,
				-14.592146873474121,
				-3
			],
			"type":"VEC3"
		},
		{
			"bufferView":5,
			"componentType":5126,
			"count":4016,
			"type":"VEC3"
		},
		{
			"bufferView":6,
			"componentType":5126,
			"count":4016,
			"type":"VEC2"
		},
		{
			"bufferView":7,
			"componentType":5123,
			"count":12024,
			"type":"SCALAR"
		},
		{
			"bufferView":8,
			"componentType":5126,
			"count":2325,
			"max":[
				125.00508880615234,
				127.80088806152344,
				125.0051040649414
			],
			"min":[
				-125.0051040649414,
				-127.80088806152344,
				-125.00508880615234
			],
			"type":"VEC3"
		},
		{
			"bufferView":9,
			"componentType":5126,
			"count":2325,
			"type":"VEC3"
		},
		{
			"bufferView":10,
			"componentType":5126,
			"count":2325,
			"type":"VEC2"
		},
		{
			"bufferView":11,
			"componentType":5123,
			"count":11520,
			"type":"SCALAR"
		},
		{
			"bufferView":12,
			"componentType":5126,
			"count":2316,
			"max":[
				304.1569519042969,
				314.7835693359375,
				304.15692138671875
			],
			"min":[
				-304.15692138671875,
				-314.7835693359375,
				-304.1569519042969
			],
			"type":"VEC3"
		},
		{
			"bufferView":13,
			"componentType":5126,
			"count":2316,
			"type":"VEC3"
		},
		{
			"bufferView":14,
			"componentType":5126,
			"count":2316,
			"type":"VEC2"
		},
		{
			"bufferView":15,
			"componentType":5123,
			"count":11520,
			"type":"SCALAR"
		},
		{
			"bufferView":16,
			"componentType":5126,
			"count":41209,
			"max":[
				500,
				19.42182731628418,
				500
			],
			"min":[
				-500,
				-19.497722625732422,
				-500
			],
			"type":"VEC3"
		},
		{
			"bufferView":17,
			"componentType":5126,
			"count":41209,
			"type":"VEC3"
		},
		{
			"bufferView":18,
			"componentType":5126,
			"count":41209,
			"type":"VEC2"
		},
		{
			"bufferView":19,
			"componentType":5123,
			"count":244824,
			"type":"SCALAR"
		}
	],
	"bufferViews":[
		{
			"buffer":0,
			"byteLength":120264,
			"byteOffset":0,
			"target":34962
		},
		{
			"buffer":0,
			"byteLength":120264,
			"byteOffset":120264,
			"target":34962
		},
		{
			"buffer":0,
			"byteLength":80176,
			"byteOffset":240528,
			"target":34962
		},
		{
			"buffer":0,
			"byteLength":96192,
			"byteOffset":320704,
			"target":34963
		},
		{
			"buffer":0,
			"byteLength":48192,
			"byteOffset":416896,
			"target":34962
		},
		{
			"buffer":0,
			"byteLength":48192,
			"byteOffset":465088,
			"target":34962
		},
		{
			"buffer":0,
			"byteLength":32128,
			"byteOffset":513280,
			"target":34962
		},
		{
			"buffer":0,
			"byteLength":24048,
			"byteOffset":545408,
			"target":34963
		},
		{
			"buffer":0,
			"byteLength":27900,
			"byteOffset":569456,
			"target":34962
		},
		{
			"buffer":0,
			"byteLength":27900,
			"byteOffset":597356,
			"target":34962
		},
		{
			"buffer":0,
			"byteLength":18600,
			"byteOffset":625256,
			"target":34962
		},
		{
			"buffer":0,
			"byteLength":23040,
			"byteOffset":643856,
			"target":34963
		},
		{
			"buffer":0,
			"byteLength":27792,
			"byteOffset":666896,
			"target":34962
		},
		{
			"buffer":0,
			"byteLength":27792,
			"byteOffset":694688,
			"target":34962
		},
		{
			"buffer":0,
			"byteLength":18528,
			"byteOffset":722480,
			"target":34962
		},
		{
			"buffer":0,
			"byteLength":23040,
			"byteOffset":741008,
			"target":34963
		},
		{
			"buffer":0,
			"byteLength":494508,
			"byteOffset":764048,
			"target":34962
		},
		{
			"buffer":0,
			"byteLength":494508,
			"byteOffset":1258556,
			"target":34962
		},
		{
			"buffer":0,
			"byteLength":329672,
			"byteOffset":1753064,
			"target":34962
		},
		{
			"buffer":0,
			"byteLength":489648,
			"byteOffset":2082736,
			"target":34963
		}
	],
	"samplers":[
		{
			"magFilter":9729,
			"minFilter":9987
		}
	],
	"buffers":[
		{
			"byteLength":2572384,
			"uri":"windowsxpmap.bin"
		}
	]
}
