{"asset":{"generator":"Khronos glTF Blender I/O v5.2.40","version":"2.0"},"extensionsUsed":["KHR_materials_emissive_strength","KHR_materials_specular","KHR_materials_ior","KHR_lights_punctual"],"extensionsRequired":["KHR_lights_punctual"],"extensions":{"KHR_lights_punctual":{"lights":[{"color":[1,1,0],"intensity":1.1936620731892151,"spot":{"innerConeAngle":0.4450589685225559,"outerConeAngle":0.5235987901687622},"type":"spot","name":"Spot.001"},{"color":[1,1,0],"intensity":1.1936620731892151,"spot":{"innerConeAngle":0.4450589685225559,"outerConeAngle":0.5235987901687622},"type":"spot","name":"Spot.002"},{"color":[0.7553014755249023,0.39791280031204224,0.03656790778040886],"intensity":59.683103659460755,"spot":{"innerConeAngle":0.41887902047863906,"outerConeAngle":0.6981317007977318},"type":"spot","range":28,"name":"Spot"}]}},"scene":0,"scenes":[{"name":"Scene","nodes":[23,48,55]}],"nodes":[{"mesh":0,"name":"RobotAntenna","translation":[0,-0.06320565938949585,0]},{"children":[0],"mesh":1,"name":"AntennaBase","translation":[0.017664484679698944,0.11740106344223022,-0.04714947193861008]},{"mesh":2,"name":"Robot_Head_Center_CanisterCord_Center_Mesh","translation":[-0.0007485449314117432,0.07202154397964478,-0.0009375736117362976]},{"mesh":3,"name":"Robot_Head_Center_CanisterCord_Left_Mesh","translation":[-0.0006071776151657104,0.07202154397964478,-0.005000002682209015]},{"mesh":4,"name":"Robot_Head_Center_CanisterCord_Right_Mesh","translation":[-0.0006071776151657104,0.07202154397964478,0.004999997094273567]},{"children":[2,3,4],"mesh":5,"name":"HeadCanister","translation":[-0.16033470630645752,0,-0.03451700136065483]},{"mesh":6,"name":"NeckLight","translation":[-0.09366589039564133,0.029755711555480957,0.04656992480158806]},{"mesh":7,"name":"NeckLight.001","translation":[-0.09366589039564133,-0.029755711555480957,0.04656992480158806]},{"mesh":8,"name":"NeckLight.002","translation":[-0.09366589039564133,0,0.04656992480158806]},{"mesh":9,"name":"RAM","translation":[-0.07615390419960022,-0.003777027130126953,-0.004105676431208849]},{"mesh":10,"name":"RobotEye"},{"children":[10],"mesh":11,"name":"RobotFace","translation":[0.17963986098766327,0,0]},{"mesh":12,"name":"RobotSatlliteDishThing","translation":[0,0,0.01787164993584156]},{"children":[12],"mesh":13,"name":"RobotSatelliteDish","translation":[0,0.078000009059906,0.000996371847577393]},{"children":[13],"mesh":14,"name":"RobotSatellite","rotation":[0,0.7071068286895752,0,0.7071067094802856]},{"children":[14],"mesh":15,"name":"RobotSatelliteBase","translation":[-0.02159232459962368,0.11247384548187256,0.05628547444939613]},{"children":[1,5,6,7,8,9,11,15],"mesh":16,"name":"BackHead"},{"mesh":17,"name":"Ear_Left","translation":[0,-0.00015461444854736328,-0.215695321559906]},{"mesh":18,"name":"Ear_Right","translation":[0,-0.0001545548439025879,0.21569553017616272]},{"children":[17,18],"mesh":19,"name":"Connector"},{"children":[16,19],"name":"RobotHead_Mesh"},{"mesh":20,"name":"RobotHeadShape"},{"children":[21],"name":"RobotHead_Shape"},{"children":[20,22],"extras":{"mass":1,"debris":"whole"},"name":"RobotHead_RigidBody","translation":[0,0.6499999761581421,0]},{"mesh":21,"name":"RAM.001","translation":[-0.059993598610162735,-0.2801545560359955,0]},{"mesh":22,"name":"Robot_Legs_FrontLight","translation":[0.04440600052475929,-0.28015461564064026,0]},{"extras":{"suspension":"stretch"},"mesh":23,"name":"Robot_Legs_Spring","translation":[0,0.04177290201187134,0]},{"extras":{"suspension":"slide"},"mesh":24,"name":"Robot_Legs_Spring_Rod","translation":[0,0.1517019271850586,0]},{"mesh":25,"name":"Robot_Thrusters.001","rotation":[0,0.7071068286895752,0,0.7071068286895752],"translation":[0,0.00015457719564437866,0]},{"children":[28],"mesh":26,"name":"RobotThrusters","translation":[0,-0.3801545798778534,0.4000000059604645]},{"extensions":{"KHR_lights_punctual":{"light":0}},"extras":{"shadow":0},"name":"RobotThrustersLeftLight","rotation":[-0.5,-0.5,-0.5000000596046448,0.5],"translation":[0,-0.37836846709251404,0]},{"extensions":{"KHR_lights_punctual":{"light":1}},"extras":{"shadow":0},"name":"RobotThrustersRightLight","rotation":[-0.5,0.5,0.5000000596046448,0.5],"translation":[0,-0.37836846709251404,0.4000000059604645]},{"mesh":27,"name":"Rocketsladd","translation":[-0.16849705576896667,-0.2895187735557556,-0.0017199516296386719]},{"mesh":28,"name":"Rocketsladd.001","translation":[-0.16835568845272064,-0.2895187735557556,-0.005782380700111389]},{"mesh":29,"name":"Rocketsladd.002","translation":[-0.16835568845272064,-0.2895187735557556,0.004217609763145447]},{"children":[24,25,26,27,29,30,31,32,33,34],"mesh":30,"name":"Robot_Legs","translation":[0,0.09999999403953552,-0.20000000298023224]},{"extensions":{"KHR_lights_punctual":{"light":2}},"extras":{"shadow":1,"decay":1},"name":"RobotHeadlight","rotation":[-0.5171451491236163,-0.4822457145296909,0.4822457777022653,0.517145119456431],"scale":[1.236880898475647,1.2368807792663574,1.2368807792663574],"translation":[0.04393300414085388,0.0032012462615966797,0]},{"mesh":31,"name":"RobotHeadlightBulb"},{"mesh":32,"name":"RobotHeadlightGlass"},{"children":[36,37,38],"extras":{"shadow":0},"mesh":33,"name":"RobotHeadlightFrame","translation":[0.2490137815475464,0,0]},{"mesh":34,"name":"RobotLicensePlate","rotation":[0,0,-0.1991371363401413,0.9799716472625732],"translation":[-0.25271305441856384,-0.031416743993759155,0]},{"mesh":35,"name":"RobotMudflapHolders","rotation":[0.07612213492393494,0.00739138200879097,-0.0963611900806427,0.9924038052558899],"translation":[-0.01765057072043419,-0.04979059100151062,-0.14165019989013672]},{"children":[39,40,41],"mesh":36,"name":"RobotMudflap"},{"children":[35,42],"name":"RobotLegs_Mesh"},{"mesh":37,"name":"RobotLeftLegShape","translation":[0,0.09999999403953552,-0.20000000298023224]},{"mesh":38,"name":"RobotMudflapShape"},{"mesh":39,"name":"RobotRightLegShape","translation":[0,0.09999999403953552,-0.20000000298023224]},{"children":[44,45,46],"name":"RobotLegs_Shape"},{"children":[43,47],"extras":{"mass":1},"name":"RobotLegs_RigidBody","translation":[0,0.18000000715255737,0]},{"mesh":40,"name":"Rim","rotation":[0,0.7071068286895752,0,0.7071067094802856]},{"mesh":41,"name":"Screws","rotation":[0,0.7071068286895752,0,0.7071067094802856]},{"children":[49,50],"mesh":42,"name":"Tyre"},{"children":[51],"name":"RobotWheel_Mesh"},{"mesh":43,"name":"RobotTyre_Shape"},{"children":[53],"name":"RobotWheel_Shape"},{"children":[52,54],"extras":{"friction":1.2000000476837158,"mass":5},"name":"RobotWheel_RigidBody"}],"materials":[{"doubleSided":true,"name":"metal_clean","pbrMetallicRoughness":{"baseColorFactor":[0.800000011920929,0.800000011920929,0.800000011920929,1],"roughnessFactor":0.25}},{"doubleSided":true,"emissiveFactor":[1,0.008022811263799667,0.37123769521713257],"extensions":{"KHR_materials_emissive_strength":{"emissiveStrength":10}},"name":"led_red","pbrMetallicRoughness":{"baseColorFactor":[1,0.008022811263799667,0.37123769521713257,1],"metallicFactor":0,"roughnessFactor":0.4000000059604645}},{"doubleSided":true,"name":"plastic","normalTexture":{"index":0},"pbrMetallicRoughness":{"baseColorTexture":{"index":1},"metallicFactor":0,"metallicRoughnessTexture":{"index":2}}},{"doubleSided":true,"name":"cord_3","pbrMetallicRoughness":{"baseColorFactor":[0,0.15889592468738556,0.3843720853328705,1],"metallicFactor":0,"roughnessFactor":0.800000011920929}},{"doubleSided":true,"name":"cord_2","pbrMetallicRoughness":{"baseColorFactor":[0.19720329344272614,0.5814605951309204,0.01654858887195587,1],"metallicFactor":0,"roughnessFactor":0.800000011920929}},{"doubleSided":true,"name":"cord_1","pbrMetallicRoughness":{"baseColorFactor":[0.09082336723804474,0.005578553304076195,0.005122002214193344,1],"metallicFactor":0,"roughnessFactor":0.800000011920929}},{"doubleSided":true,"extensions":{"KHR_materials_specular":{"specularTexture":{"index":3}},"KHR_materials_ior":{"ior":1.4500000476837158}},"name":"PAINTED_METAL","normalTexture":{"index":4},"pbrMetallicRoughness":{"baseColorTexture":{"index":5},"metallicRoughnessTexture":{"index":6}}},{"doubleSided":true,"emissiveFactor":[0.13286758959293365,1,0.0024285016115754843],"extensions":{"KHR_materials_emissive_strength":{"emissiveStrength":10}},"name":"led_green","pbrMetallicRoughness":{"baseColorFactor":[0.13286758959293365,1,0.0024285016115754843,1],"metallicFactor":0,"roughnessFactor":0.4000000059604645}},{"doubleSided":true,"emissiveFactor":[0,0.4396565854549408,1],"extensions":{"KHR_materials_emissive_strength":{"emissiveStrength":10}},"name":"led_blue","pbrMetallicRoughness":{"baseColorFactor":[0,0.4396565854549408,1,1],"metallicFactor":0,"roughnessFactor":0.4000000059604645}},{"doubleSided":true,"name":"chip","pbrMetallicRoughness":{"baseColorTexture":{"index":7},"metallicRoughnessTexture":{"index":8}}},{"doubleSided":true,"name":"robot","normalTexture":{"index":9},"pbrMetallicRoughness":{"baseColorTexture":{"index":10},"metallicRoughnessTexture":{"index":11}}},{"alphaMode":"BLEND","doubleSided":true,"name":"glass","pbrMetallicRoughness":{"baseColorFactor":[0.08713928610086441,0.08713928610086441,0.08713928610086441,0.30000001192092896],"metallicFactor":0,"roughnessFactor":0}},{"doubleSided":true,"name":"plastic_white","pbrMetallicRoughness":{"baseColorFactor":[0.5595778822898865,0.5595778822898865,0.5595778822898865,1],"metallicFactor":0,"roughnessFactor":0.4000000059604645}},{"alphaMode":"BLEND","doubleSided":true,"emissiveFactor":[1,1,1],"emissiveTexture":{"index":12},"name":"flame","pbrMetallicRoughness":{"baseColorTexture":{"index":13},"metallicFactor":0,"roughnessFactor":0.5}},{"doubleSided":true,"name":"springs","pbrMetallicRoughness":{"baseColorFactor":[0,0.37626171112060547,1,1],"roughnessFactor":0.25}},{"doubleSided":true,"emissiveFactor":[1,0.9734447002410889,0],"extensions":{"KHR_materials_emissive_strength":{"emissiveStrength":50}},"name":"led_yellow","pbrMetallicRoughness":{"baseColorFactor":[1,0.9734447002410889,0,1],"metallicFactor":0,"roughnessFactor":0.4000000059604645}},{"doubleSided":true,"name":"metal_unclean","pbrMetallicRoughness":{"baseColorFactor":[0.35055598616600037,0.35055598616600037,0.35055598616600037,1],"roughnessFactor":0.527193009853363}},{"doubleSided":true,"name":"license_plate","pbrMetallicRoughness":{"baseColorTexture":{"index":14},"metallicFactor":0}},{"doubleSided":true,"name":"metal_rusty","normalTexture":{"index":15,"texCoord":1},"pbrMetallicRoughness":{"baseColorTexture":{"index":16,"texCoord":1},"metallicRoughnessTexture":{"index":17,"texCoord":1}}},{"doubleSided":true,"name":"tyre","normalTexture":{"index":18},"pbrMetallicRoughness":{"baseColorTexture":{"index":19},"metallicRoughnessTexture":{"index":20}}}],"meshes":[{"name":"Cylinder.015","primitives":[{"attributes":{"POSITION":0,"NORMAL":1,"TEXCOORD_0":2},"indices":3,"material":0},{"attributes":{"POSITION":4,"NORMAL":5,"TEXCOORD_0":6},"indices":7,"material":1},{"attributes":{"POSITION":8,"NORMAL":9,"TEXCOORD_0":10},"indices":11,"material":2}]},{"name":"Cylinder.014","primitives":[{"attributes":{"POSITION":12,"NORMAL":13,"TEXCOORD_0":14},"indices":15,"material":2}]},{"name":"BezierCurve.002","primitives":[{"attributes":{"POSITION":16,"NORMAL":17,"TEXCOORD_0":18},"indices":19,"material":3}]},{"name":"BezierCurve","primitives":[{"attributes":{"POSITION":20,"NORMAL":21,"TEXCOORD_0":22},"indices":19,"material":4}]},{"name":"BezierCurve.001","primitives":[{"attributes":{"POSITION":23,"NORMAL":24,"TEXCOORD_0":25},"indices":19,"material":5}]},{"name":"Cylinder.001","primitives":[{"attributes":{"POSITION":26,"NORMAL":27,"TEXCOORD_0":28},"indices":29,"material":0},{"attributes":{"POSITION":30,"NORMAL":31,"TEXCOORD_0":32},"indices":33,"material":6},{"attributes":{"POSITION":34,"NORMAL":35,"TEXCOORD_0":36},"indices":37,"material":2}]},{"name":"Cylinder.003","primitives":[{"attributes":{"POSITION":38,"NORMAL":39,"TEXCOORD_0":40},"indices":41,"material":7}]},{"name":"Cylinder.018","primitives":[{"attributes":{"POSITION":42,"NORMAL":43,"TEXCOORD_0":44},"indices":41,"material":1}]},{"name":"Cylinder.007","primitives":[{"attributes":{"POSITION":45,"NORMAL":46,"TEXCOORD_0":47},"indices":41,"material":8}]},{"name":"Plane.001","primitives":[{"attributes":{"POSITION":48,"NORMAL":49,"TEXCOORD_0":50},"indices":51,"material":9}]},{"name":"Cylinder.024","primitives":[{"attributes":{"POSITION":52,"NORMAL":53,"TEXCOORD_0":54},"indices":55,"material":8}]},{"name":"Cylinder.006","primitives":[{"attributes":{"POSITION":56,"NORMAL":57,"TEXCOORD_0":58},"indices":59,"material":10},{"attributes":{"POSITION":60,"NORMAL":61,"TEXCOORD_0":62},"indices":63,"material":2},{"attributes":{"POSITION":64,"NORMAL":65,"TEXCOORD_0":66},"indices":67,"material":7},{"attributes":{"POSITION":68,"NORMAL":69,"TEXCOORD_0":70},"indices":71,"material":11}]},{"name":"Cylinder.017","primitives":[{"attributes":{"POSITION":72,"NORMAL":73,"TEXCOORD_0":74},"indices":75,"material":2}]},{"name":"Cylinder.012","primitives":[{"attributes":{"POSITION":76,"NORMAL":77,"TEXCOORD_0":78},"indices":79,"material":12}]},{"name":"Cylinder.010","primitives":[{"attributes":{"POSITION":80,"NORMAL":81,"TEXCOORD_0":82},"indices":83,"material":0}]},{"name":"Cylinder.009","primitives":[{"attributes":{"POSITION":84,"NORMAL":85,"TEXCOORD_0":86},"indices":87,"material":2}]},{"name":"Cylinder.008","primitives":[{"attributes":{"POSITION":88,"NORMAL":89,"TEXCOORD_0":90},"indices":91,"material":10},{"attributes":{"POSITION":92,"NORMAL":93,"TEXCOORD_0":94},"indices":95,"material":2}]},{"name":"Cube.003","primitives":[{"attributes":{"POSITION":96,"NORMAL":97,"TEXCOORD_0":98},"indices":99,"material":10},{"attributes":{"POSITION":100,"NORMAL":101,"TEXCOORD_0":102},"indices":103,"material":2}]},{"name":"Cube.004","primitives":[{"attributes":{"POSITION":104,"NORMAL":105,"TEXCOORD_0":106},"indices":107,"material":10},{"attributes":{"POSITION":108,"NORMAL":109,"TEXCOORD_0":110},"indices":111,"material":2}]},{"name":"Cylinder.005","primitives":[{"attributes":{"POSITION":112,"NORMAL":113,"TEXCOORD_0":114},"indices":115,"material":2}]},{"name":"Cylinder.011","primitives":[{"attributes":{"POSITION":116,"NORMAL":117,"TEXCOORD_0":118},"indices":119}]},{"name":"Plane.002","primitives":[{"attributes":{"POSITION":120,"NORMAL":121,"TEXCOORD_0":122},"indices":123,"material":9}]},{"name":"Cylinder.002","primitives":[{"attributes":{"POSITION":124,"NORMAL":125,"TEXCOORD_0":126},"indices":127,"material":1},{"attributes":{"POSITION":128,"NORMAL":129,"TEXCOORD_0":130},"indices":131,"material":2}]},{"name":"Circle.001","primitives":[{"attributes":{"POSITION":132,"NORMAL":133,"TEXCOORD_0":134},"indices":135,"material":0}]},{"name":"Cube.002","primitives":[{"attributes":{"POSITION":136,"NORMAL":137,"TEXCOORD_0":138},"indices":139,"material":0}]},{"name":"flame.002","primitives":[{"attributes":{"POSITION":140,"NORMAL":141,"TEXCOORD_0":142},"indices":143,"material":13}]},{"name":"flame","primitives":[{"attributes":{"POSITION":144,"NORMAL":145,"TEXCOORD_0":146},"indices":143,"material":13}]},{"name":"BezierCurve.005","primitives":[{"attributes":{"POSITION":147,"NORMAL":148,"TEXCOORD_0":149},"indices":150,"material":3}]},{"name":"BezierCurve.003","primitives":[{"attributes":{"POSITION":151,"NORMAL":152,"TEXCOORD_0":153},"indices":150,"material":4}]},{"name":"BezierCurve.004","primitives":[{"attributes":{"POSITION":154,"NORMAL":155,"TEXCOORD_0":156},"indices":150,"material":5}]},{"name":"Cube","primitives":[{"attributes":{"POSITION":157,"NORMAL":158,"TEXCOORD_0":159},"indices":160,"material":14},{"attributes":{"POSITION":161,"NORMAL":162,"TEXCOORD_0":163},"indices":164,"material":0},{"attributes":{"POSITION":165,"NORMAL":166,"TEXCOORD_0":167},"indices":168,"material":10},{"attributes":{"POSITION":169,"NORMAL":170,"TEXCOORD_0":171},"indices":172,"material":2},{"attributes":{"POSITION":173,"NORMAL":174,"TEXCOORD_0":175},"indices":176,"material":6}]},{"name":"Cylinder.021","primitives":[{"attributes":{"POSITION":177,"NORMAL":178,"TEXCOORD_0":179},"indices":180,"material":15}]},{"name":"Cylinder.020","primitives":[{"attributes":{"POSITION":181,"NORMAL":182,"TEXCOORD_0":183},"indices":184,"material":11}]},{"name":"Cylinder.022","primitives":[{"attributes":{"POSITION":185,"NORMAL":186,"TEXCOORD_0":187},"indices":188,"material":10},{"attributes":{"POSITION":189,"NORMAL":190,"TEXCOORD_0":191},"indices":192,"material":2},{"attributes":{"POSITION":193,"NORMAL":194,"TEXCOORD_0":195},"indices":196,"material":0}]},{"name":"Cube.010","primitives":[{"attributes":{"POSITION":197,"NORMAL":198,"TEXCOORD_0":199},"indices":200,"material":16},{"attributes":{"POSITION":201,"NORMAL":202,"TEXCOORD_0":203},"indices":204,"material":17}]},{"name":"Cube.001","primitives":[{"attributes":{"POSITION":205,"NORMAL":206,"TEXCOORD_0":207},"indices":208,"material":10}]},{"name":"Cylinder.026","primitives":[{"attributes":{"POSITION":209,"NORMAL":210,"TEXCOORD_0":211},"indices":212,"material":10},{"attributes":{"POSITION":213,"NORMAL":214,"TEXCOORD_0":215},"indices":216,"material":2}]},{"name":"Cylinder.027","primitives":[{"attributes":{"POSITION":217,"NORMAL":218,"TEXCOORD_0":219},"indices":220}]},{"name":"Cube.006","primitives":[{"attributes":{"POSITION":221,"NORMAL":222,"TEXCOORD_0":223},"indices":224}]},{"name":"Cylinder.013","primitives":[{"attributes":{"POSITION":225,"NORMAL":226,"TEXCOORD_0":227},"indices":228}]},{"name":"Cylinder.025","primitives":[{"attributes":{"POSITION":229,"NORMAL":230,"TEXCOORD_0":231},"indices":232,"material":6},{"attributes":{"POSITION":233,"NORMAL":234,"TEXCOORD_0":235},"indices":236,"material":10}]},{"name":"Cylinder.029","primitives":[{"attributes":{"POSITION":237,"NORMAL":238,"TEXCOORD_0":239,"TEXCOORD_1":240},"indices":241,"material":18},{"attributes":{"POSITION":242,"NORMAL":243,"TEXCOORD_0":244,"TEXCOORD_1":245},"indices":246,"material":16}]},{"name":"Cylinder","primitives":[{"attributes":{"POSITION":247,"NORMAL":248,"TEXCOORD_0":249},"indices":250,"material":19}]},{"name":"Cylinder.004","primitives":[{"attributes":{"POSITION":251,"NORMAL":252,"TEXCOORD_0":253},"indices":254}]}],"textures":[{"sampler":0,"source":0},{"sampler":0,"source":1},{"sampler":0,"source":2},{"sampler":0,"source":3},{"sampler":0,"source":4},{"sampler":0,"source":5},{"sampler":0,"source":6},{"sampler":0,"source":7},{"sampler":0,"source":8},{"sampler":0,"source":9},{"sampler":0,"source":10},{"sampler":0,"source":11},{"sampler":1,"source":12},{"sampler":1,"source":12},{"sampler":0,"source":13},{"sampler":0,"source":14},{"sampler":0,"source":15},{"sampler":0,"source":16},{"sampler":0,"source":17},{"sampler":0,"source":18},{"sampler":0,"source":19}],"images":[{"mimeType":"image/jpeg","name":"Plastic006_1K_NormalDX","uri":"textures/Plastic006_1K_NormalDX.jpg"},{"mimeType":"image/jpeg","name":"Plastic006_1K_Color","uri":"textures/Plastic006_1K_Color.jpg"},{"mimeType":"image/png","name":"Plastic006_1K_Roughness","uri":"textures/Plastic006_1K_Roughness.png"},{"mimeType":"image/jpeg","name":"metal-colored-rusty-2-specular","uri":"textures/metal-colored-rusty-2-specular.jpg"},{"mimeType":"image/jpeg","name":"metal-colored-rusty-2-normal","uri":"textures/metal-colored-rusty-2-normal.jpg"},{"mimeType":"image/jpeg","name":"metal-colored-rusty-2-color","uri":"textures/metal-colored-rusty-2-color.jpg"},{"mimeType":"image/png","name":"metal-colored-rusty-2-alpha-metal-colored-rusty-2-roughness","uri":"textures/metal-colored-rusty-2-alpha-metal-colored-rusty-2-roughness.png"},{"mimeType":"image/jpeg","name":"Chip006_1K_Color","uri":"textures/Chip006_1K_Color.jpg"},{"mimeType":"image/png","name":"Chip006_1K_Metalness","uri":"textures/Chip006_1K_Metalness.png"},{"mimeType":"image/png","name":"green_metal_rust_nor_gl_4k.exr","uri":"textures/green_metal_rust_nor_gl_4k.exr.png"},{"mimeType":"image/jpeg","name":"green_metal_rust_diff_4k","uri":"textures/green_metal_rust_diff_4k.jpg"},{"mimeType":"image/png","name":"green_metal_rust_diff_4k.jpg-green_metal_rust_rough_4k.jpg","uri":"textures/green_metal_rust_diff_4k.jpg-green_metal_rust_rough_4k.jpg.png"},{"mimeType":"image/png","name":"flame","uri":"textures/flame.png"},{"mimeType":"image/jpeg","name":"license-plate","uri":"textures/license-plate.jpg"},{"mimeType":"image/jpeg","name":"metal-rusty-normal","uri":"textures/metal-rusty-normal.jpg"},{"mimeType":"image/jpeg","name":"metal-rusty-color","uri":"textures/metal-rusty-color.jpg"},{"mimeType":"image/png","name":"metal-rusty-ao-metal-rusty-roughness","uri":"textures/metal-rusty-ao-metal-rusty-roughness.png"},{"mimeType":"image/jpeg","name":"tyre-normal","uri":"textures/tyre-normal.jpg"},{"mimeType":"image/jpeg","name":"tyre-color","uri":"textures/tyre-color.jpg"},{"mimeType":"image/png","name":"tyre-metallic-tyre-roughness","uri":"textures/tyre-metallic-tyre-roughness.png"}],"accessors":[{"bufferView":0,"componentType":5126,"count":60,"max":[0.001999999862164259,0.0796516165137291,0.001999999862164259],"min":[-0.001999999862164259,-0.0811205580830574,-0.001999999862164259],"type":"VEC3"},{"bufferView":1,"componentType":5126,"count":60,"type":"VEC3"},{"bufferView":2,"componentType":5126,"count":60,"type":"VEC2"},{"bufferView":3,"componentType":5123,"count":192,"type":"SCALAR"},{"bufferView":4,"componentType":5126,"count":166,"max":[0.0039343941025435925,0.08882243186235428,0.003934372682124376],"min":[-0.003934393636882305,0.08095364272594452,-0.003934415057301521],"type":"VEC3"},{"bufferView":5,"componentType":5126,"count":166,"type":"VEC3"},{"bufferView":6,"componentType":5126,"count":166,"type":"VEC2"},{"bufferView":7,"componentType":5123,"count":672,"type":"SCALAR"},{"bufferView":8,"componentType":5126,"count":76,"max":[0.001290183630771935,0.08139421045780182,0.0012901804875582457],"min":[-0.0012901804875582457,0.0796516165137291,-0.0012901804875582457],"type":"VEC3"},{"bufferView":9,"componentType":5126,"count":76,"type":"VEC3"},{"bufferView":10,"componentType":5126,"count":76,"type":"VEC2"},{"bufferView":11,"componentType":5123,"count":234,"type":"SCALAR"},{"bufferView":12,"componentType":5126,"count":253,"max":[0.010811121203005314,0.01250000111758709,0.01081113237887621],"min":[-0.010811119340360165,-0.01249999925494194,-0.010811109095811844],"type":"VEC3"},{"bufferView":13,"componentType":5126,"count":253,"type":"VEC3"},{"bufferView":14,"componentType":5126,"count":253,"type":"VEC2"},{"bufferView":15,"componentType":5123,"count":1056,"type":"SCALAR"},{"bufferView":16,"componentType":5126,"count":125,"max":[0.07184229791164398,0.03209652006626129,0.00250592571683228],"min":[-0.0023953441996127367,-0.042145371437072754,-0.00822404958307743],"type":"VEC3"},{"bufferView":17,"componentType":5126,"count":125,"type":"VEC3"},{"bufferView":18,"componentType":5126,"count":125,"type":"VEC2"},{"bufferView":19,"componentType":5123,"count":576,"type":"SCALAR"},{"bufferView":20,"componentType":5126,"count":125,"max":[0.07061222195625305,0.024364208802580833,0.002499988302588463],"min":[-0.0017706755315884948,-0.04059477150440216,-0.012851371429860592],"type":"VEC3"},{"bufferView":21,"componentType":5126,"count":125,"type":"VEC3"},{"bufferView":22,"componentType":5126,"count":125,"type":"VEC2"},{"bufferView":23,"componentType":5126,"count":125,"max":[0.07181014865636826,0.03225581347942352,0.008809386752545834],"min":[-0.0022534343879669905,-0.042062897235155106,-0.002500009024515748],"type":"VEC3"},{"bufferView":24,"componentType":5126,"count":125,"type":"VEC3"},{"bufferView":25,"componentType":5126,"count":125,"type":"VEC2"},{"bufferView":26,"componentType":5126,"count":119,"max":[0.01795884408056736,0.04854255169630051,0.021014735102653503],"min":[-0.024070627987384796,-0.04854255169630051,-0.021014735102653503],"type":"VEC3"},{"bufferView":27,"componentType":5126,"count":119,"type":"VEC3"},{"bufferView":28,"componentType":5126,"count":119,"type":"VEC2"},{"bufferView":29,"componentType":5123,"count":576,"type":"SCALAR"},{"bufferView":30,"componentType":5126,"count":1768,"max":[0.08149045705795288,0.08550502359867096,0.030310187488794327],"min":[-0.03336608409881592,-0.08550502359867096,-0.030310187488794327],"type":"VEC3"},{"bufferView":31,"componentType":5126,"count":1768,"type":"VEC3"},{"bufferView":32,"componentType":5126,"count":1768,"type":"VEC2"},{"bufferView":33,"componentType":5123,"count":8400,"type":"SCALAR"},{"bufferView":34,"componentType":5126,"count":96,"max":[0.017436068505048752,0.07984109967947006,0.020491965115070343],"min":[-0.023547861725091934,-0.07984109967947006,-0.020491965115070343],"type":"VEC3"},{"bufferView":35,"componentType":5126,"count":96,"type":"VEC3"},{"bufferView":36,"componentType":5126,"count":96,"type":"VEC2"},{"bufferView":37,"componentType":5123,"count":468,"type":"SCALAR"},{"bufferView":38,"componentType":5126,"count":66,"max":[0.018597310408949852,0.008119657635688782,0.008119666017591953],"min":[-0.018597310408949852,-0.008119657635688782,-0.008119666017591953],"type":"VEC3"},{"bufferView":39,"componentType":5126,"count":66,"type":"VEC3"},{"bufferView":40,"componentType":5126,"count":66,"type":"VEC2"},{"bufferView":41,"componentType":5123,"count":234,"type":"SCALAR"},{"bufferView":42,"componentType":5126,"count":66,"max":[0.018597310408949852,0.008119657635688782,0.008119666017591953],"min":[-0.018597310408949852,-0.008119657635688782,-0.008119666017591953],"type":"VEC3"},{"bufferView":43,"componentType":5126,"count":66,"type":"VEC3"},{"bufferView":44,"componentType":5126,"count":66,"type":"VEC2"},{"bufferView":45,"componentType":5126,"count":66,"max":[0.018597310408949852,0.008119657635688782,0.008119666017591953],"min":[-0.018597310408949852,-0.008119657635688782,-0.008119666017591953],"type":"VEC3"},{"bufferView":46,"componentType":5126,"count":66,"type":"VEC3"},{"bufferView":47,"componentType":5126,"count":66,"type":"VEC2"},{"bufferView":48,"componentType":5126,"count":48,"max":[-0.03606852516531944,0.05000000074505806,0.02552262507379055],"min":[-0.05000000074505806,-0.05000000074505806,0.010522538796067238],"type":"VEC3"},{"bufferView":49,"componentType":5126,"count":48,"type":"VEC3"},{"bufferView":50,"componentType":5126,"count":48,"type":"VEC2"},{"bufferView":51,"componentType":5123,"count":72,"type":"SCALAR"},{"bufferView":52,"componentType":5126,"count":185,"max":[0.028096366673707962,0.027029257267713547,0.027029220014810562],"min":[0.0004697837575804442,-0.027029208838939667,-0.02702922374010086],"type":"VEC3"},{"bufferView":53,"componentType":5126,"count":185,"type":"VEC3"},{"bufferView":54,"componentType":5126,"count":185,"type":"VEC2"},{"bufferView":55,"componentType":5123,"count":786,"type":"SCALAR"},{"bufferView":56,"componentType":5126,"count":1938,"max":[0.06978701800107956,0.125,0.12524034082889557],"min":[-0.046098705381155014,-0.1250000149011612,-0.12524035573005676],"type":"VEC3"},{"bufferView":57,"componentType":5126,"count":1938,"type":"VEC3"},{"bufferView":58,"componentType":5126,"count":1938,"type":"VEC2"},{"bufferView":59,"componentType":5123,"count":10356,"type":"SCALAR"},{"bufferView":60,"componentType":5126,"count":689,"max":[0.050692539662122726,0.11573577672243118,0.11573578417301178],"min":[-0.17536646127700806,-0.11573577672243118,-0.11573576927185059],"type":"VEC3"},{"bufferView":61,"componentType":5126,"count":689,"type":"VEC3"},{"bufferView":62,"componentType":5126,"count":689,"type":"VEC2"},{"bufferView":63,"componentType":5123,"count":3162,"type":"SCALAR"},{"bufferView":64,"componentType":5126,"count":288,"max":[0.05260428786277771,0.0631423220038414,0.11327478289604187],"min":[-0.028183747082948685,-0.00044781342148780823,-0.11327478289604187],"type":"VEC3"},{"bufferView":65,"componentType":5126,"count":288,"type":"VEC3"},{"bufferView":66,"componentType":5126,"count":288,"type":"VEC2"},{"bufferView":67,"componentType":5123,"count":1260,"type":"SCALAR"},{"bufferView":68,"componentType":5126,"count":432,"max":[0.06887160986661911,0.10443031042814255,0.1036006286740303],"min":[0.046217139810323715,-0.1037386804819107,-0.1046726331114769],"type":"VEC3"},{"bufferView":69,"componentType":5126,"count":432,"type":"VEC3"},{"bufferView":70,"componentType":5126,"count":432,"type":"VEC2"},{"bufferView":71,"componentType":5123,"count":2202,"type":"SCALAR"},{"bufferView":72,"componentType":5126,"count":103,"max":[0.0013911378337070346,0.0013911386486142874,0.0052229268476367],"min":[-0.0013911378337070346,-0.0013911370187997818,-0.017389221116900444],"type":"VEC3"},{"bufferView":73,"componentType":5126,"count":103,"type":"VEC3"},{"bufferView":74,"componentType":5126,"count":103,"type":"VEC2"},{"bufferView":75,"componentType":5123,"count":276,"type":"SCALAR"},{"bufferView":76,"componentType":5126,"count":178,"max":[0.03213108703494072,0.03213108703494072,0.011753457598388195],"min":[-0.03213107958436012,-0.03213108703494072,-0.000008131172762659844],"type":"VEC3"},{"bufferView":77,"componentType":5126,"count":178,"type":"VEC3"},{"bufferView":78,"componentType":5126,"count":178,"type":"VEC2"},{"bufferView":79,"componentType":5123,"count":768,"type":"SCALAR"},{"bufferView":80,"componentType":5126,"count":200,"max":[0.004999999888241291,0.07851838320493698,0.004999999888241291],"min":[-0.004999999888241291,-0.0192592591047287,-0.004999999888241291],"type":"VEC3"},{"bufferView":81,"componentType":5126,"count":200,"type":"VEC3"},{"bufferView":82,"componentType":5126,"count":200,"type":"VEC2"},{"bufferView":83,"componentType":5123,"count":618,"type":"SCALAR"},{"bufferView":84,"componentType":5126,"count":252,"max":[0.0164704117923975,0.01250000111758709,0.016470421105623245],"min":[-0.01647040992975235,-0.01249999925494194,-0.016470402479171753],"type":"VEC3"},{"bufferView":85,"componentType":5126,"count":252,"type":"VEC3"},{"bufferView":86,"componentType":5126,"count":252,"type":"VEC2"},{"bufferView":87,"componentType":5123,"count":1056,"type":"SCALAR"},{"bufferView":88,"componentType":5126,"count":1017,"max":[0.10427342355251312,0.1250000149011612,0.125],"min":[-0.11940141022205353,-0.125,-0.125],"type":"VEC3"},{"bufferView":89,"componentType":5126,"count":1017,"type":"VEC3"},{"bufferView":90,"componentType":5126,"count":1017,"type":"VEC2"},{"bufferView":91,"componentType":5123,"count":5184,"type":"SCALAR"},{"bufferView":92,"componentType":5126,"count":96,"max":[-0.1067405417561531,0.08650511503219604,0.08650510758161545],"min":[-0.10746906697750092,-0.08650509268045425,-0.08650508522987366],"type":"VEC3"},{"bufferView":93,"componentType":5126,"count":96,"type":"VEC3"},{"bufferView":94,"componentType":5126,"count":96,"type":"VEC2"},{"bufferView":95,"componentType":5123,"count":474,"type":"SCALAR"},{"bufferView":96,"componentType":5126,"count":472,"max":[0.0492415688931942,0.049241624772548676,0.05258040875196457],"min":[-0.04924154654145241,-0.049241505563259125,-0.022419586777687073],"type":"VEC3"},{"bufferView":97,"componentType":5126,"count":472,"type":"VEC3"},{"bufferView":98,"componentType":5126,"count":472,"type":"VEC2"},{"bufferView":99,"componentType":5123,"count":2514,"type":"SCALAR"},{"bufferView":100,"componentType":5126,"count":72,"max":[0.011172803118824959,0.011172840371727943,-0.007741138339042664],"min":[-0.011172808706760406,-0.011172721162438393,-0.008473378606140614],"type":"VEC3"},{"bufferView":101,"componentType":5126,"count":72,"type":"VEC3"},{"bufferView":102,"componentType":5126,"count":72,"type":"VEC2"},{"bufferView":103,"componentType":5123,"count":354,"type":"SCALAR"},{"bufferView":104,"componentType":5126,"count":472,"max":[0.0492415688931942,0.0492415651679039,0.022419363260269165],"min":[-0.04924154654145241,-0.0492415651679039,-0.05258065462112427],"type":"VEC3"},{"bufferView":105,"componentType":5126,"count":472,"type":"VEC3"},{"bufferView":106,"componentType":5126,"count":472,"type":"VEC2"},{"bufferView":107,"componentType":5123,"count":2514,"type":"SCALAR"},{"bufferView":108,"componentType":5126,"count":72,"max":[0.011172803118824959,0.011172782629728317,0.008473147638142109],"min":[-0.011172808706760406,-0.011172778904438019,0.007740914821624756],"type":"VEC3"},{"bufferView":109,"componentType":5126,"count":72,"type":"VEC3"},{"bufferView":110,"componentType":5126,"count":72,"type":"VEC2"},{"bufferView":111,"componentType":5123,"count":354,"type":"SCALAR"},{"bufferView":112,"componentType":5126,"count":267,"max":[0.050000011920928955,0.050000011920928955,0.1600000113248825],"min":[-0.050000011920928955,-0.050000011920928955,-0.1600000113248825],"type":"VEC3"},{"bufferView":113,"componentType":5126,"count":267,"type":"VEC3"},{"bufferView":114,"componentType":5126,"count":267,"type":"VEC2"},{"bufferView":115,"componentType":5123,"count":1428,"type":"SCALAR"},{"bufferView":116,"componentType":5126,"count":128,"max":[0.24952490627765656,0.1250000149011612,0.23500001430511475],"min":[-0.20047511160373688,-0.1249999925494194,-0.23500001430511475],"type":"VEC3"},{"bufferView":117,"componentType":5126,"count":128,"type":"VEC3"},{"bufferView":118,"componentType":5126,"count":128,"type":"VEC2"},{"bufferView":119,"componentType":5123,"count":168,"type":"SCALAR"},{"bufferView":120,"componentType":5126,"count":48,"max":[0.002500018570572138,0.015799550339579582,0.4349641799926758],"min":[-1.856795428523128e-8,-0.015799550339579582,-0.034964196383953094],"type":"VEC3"},{"bufferView":121,"componentType":5126,"count":48,"type":"VEC3"},{"bufferView":122,"componentType":5126,"count":48,"type":"VEC2"},{"bufferView":123,"componentType":5123,"count":72,"type":"SCALAR"},{"bufferView":124,"componentType":5126,"count":96,"max":[0.032085876911878586,0.014746187254786491,0.4147461950778961],"min":[0.02500000037252903,-0.01474619098007679,-0.01474618911743164],"type":"VEC3"},{"bufferView":125,"componentType":5126,"count":96,"type":"VEC3"},{"bufferView":126,"componentType":5126,"count":96,"type":"VEC2"},{"bufferView":127,"componentType":5123,"count":468,"type":"SCALAR"},{"bufferView":128,"componentType":5126,"count":132,"max":[0.02500000223517418,0.020000001415610313,0.42000001668930054],"min":[-0.02500000223517418,-0.020000001415610313,-0.019999999552965164],"type":"VEC3"},{"bufferView":129,"componentType":5126,"count":132,"type":"VEC3"},{"bufferView":130,"componentType":5126,"count":132,"type":"VEC2"},{"bufferView":131,"componentType":5123,"count":384,"type":"SCALAR"},{"bufferView":132,"componentType":5126,"count":3088,"max":[0.026966441422700882,0.304999977350235,0.42696645855903625],"min":[-0.026966441422700882,-0.005000025033950806,-0.026966441422700882],"type":"VEC3"},{"bufferView":133,"componentType":5126,"count":3088,"type":"VEC3"},{"bufferView":134,"componentType":5126,"count":3088,"type":"VEC2"},{"bufferView":135,"componentType":5123,"count":18432,"type":"SCALAR"},{"bufferView":136,"componentType":5126,"count":132,"max":[0.011551262810826302,0.2402118593454361,0.41155126690864563],"min":[-0.011551262810826302,-0.24021175503730774,-0.011551263742148876],"type":"VEC3"},{"bufferView":137,"componentType":5126,"count":132,"type":"VEC3"},{"bufferView":138,"componentType":5126,"count":132,"type":"VEC2"},{"bufferView":139,"componentType":5123,"count":384,"type":"SCALAR"},{"bufferView":140,"componentType":5126,"count":8,"max":[0.43204063177108765,0.002801467664539814,3.252887026405915e-8],"min":[-0.032040636986494064,-0.15244442224502563,-1.224323220583301e-8],"type":"VEC3"},{"bufferView":141,"componentType":5126,"count":8,"type":"VEC3"},{"bufferView":142,"componentType":5126,"count":8,"type":"VEC2"},{"bufferView":143,"componentType":5123,"count":12,"type":"SCALAR"},{"bufferView":144,"componentType":5126,"count":8,"max":[0.032040636986494064,0.002801467664539814,1.224323220583301e-8],"min":[-0.032040636986494064,-0.15244442224502563,-0.4000000059604645],"type":"VEC3"},{"bufferView":145,"componentType":5126,"count":8,"type":"VEC3"},{"bufferView":146,"componentType":5126,"count":8,"type":"VEC2"},{"bufferView":147,"componentType":5126,"count":250,"max":[0.1330936700105667,0.008861563168466091,0.40710926055908203],"min":[0.09343886375427246,-0.0478266216814518,-0.0036693448200821877],"type":"VEC3"},{"bufferView":148,"componentType":5126,"count":250,"type":"VEC3"},{"bufferView":149,"componentType":5126,"count":250,"type":"VEC2"},{"bufferView":150,"componentType":5123,"count":1152,"type":"SCALAR"},{"bufferView":151,"componentType":5126,"count":250,"max":[0.13292251527309418,0.009683404117822647,0.42013126611709595],"min":[0.09268347173929214,-0.046824611723423004,-0.008566486649215221],"type":"VEC3"},{"bufferView":152,"componentType":5126,"count":250,"type":"VEC3"},{"bufferView":153,"componentType":5126,"count":250,"type":"VEC2"},{"bufferView":154,"componentType":5126,"count":250,"max":[0.13292798399925232,0.008914223872125149,0.3940647840499878],"min":[0.09323989599943161,-0.04779374971985817,-0.002499990863725543],"type":"VEC3"},{"bufferView":155,"componentType":5126,"count":250,"type":"VEC3"},{"bufferView":156,"componentType":5126,"count":250,"type":"VEC2"},{"bufferView":157,"componentType":5126,"count":396,"max":[0.03875016048550606,-0.19358991086483002,0.43875017762184143],"min":[-0.03875016048550606,-0.20289434492588043,-0.038750167936086655],"type":"VEC3"},{"bufferView":158,"componentType":5126,"count":396,"type":"VEC3"},{"bufferView":159,"componentType":5126,"count":396,"type":"VEC2"},{"bufferView":160,"componentType":5123,"count":1920,"type":"SCALAR"},{"bufferView":161,"componentType":5126,"count":1842,"max":[0.05275234580039978,0.028329666703939438,0.45275235176086426],"min":[-0.05275234580039978,-0.4198454022407532,-0.05275235325098038],"type":"VEC3"},{"bufferView":162,"componentType":5126,"count":1842,"type":"VEC3"},{"bufferView":163,"componentType":5126,"count":1842,"type":"VEC2"},{"bufferView":164,"componentType":5123,"count":9780,"type":"SCALAR"},{"bufferView":165,"componentType":5126,"count":1356,"max":[0.0587175227701664,-0.22143706679344177,0.45882901549339294],"min":[-0.0587175227701664,-0.33887210488319397,-0.05882900208234787],"type":"VEC3"},{"bufferView":166,"componentType":5126,"count":1356,"type":"VEC3"},{"bufferView":167,"componentType":5126,"count":1356,"type":"VEC2"},{"bufferView":168,"componentType":5123,"count":6708,"type":"SCALAR"},{"bufferView":169,"componentType":5126,"count":3834,"max":[0.0482221283018589,0.10202717781066895,0.45118167996406555],"min":[-0.0482221283018589,-0.355826199054718,-0.05118168517947197],"type":"VEC3"},{"bufferView":170,"componentType":5126,"count":3834,"type":"VEC3"},{"bufferView":171,"componentType":5126,"count":3834,"type":"VEC2"},{"bufferView":172,"componentType":5123,"count":19176,"type":"SCALAR"},{"bufferView":173,"componentType":5126,"count":2772,"max":[0.04501352831721306,-0.13191331923007965,0.44501355290412903],"min":[-0.04501352831721306,-0.2788325548171997,-0.045013535767793655],"type":"VEC3"},{"bufferView":174,"componentType":5126,"count":2772,"type":"VEC3"},{"bufferView":175,"componentType":5126,"count":2772,"type":"VEC2"},{"bufferView":176,"componentType":5123,"count":14976,"type":"SCALAR"},{"bufferView":177,"componentType":5126,"count":63,"max":[0.042409662157297134,0.042409658432006836,0.04033404588699341],"min":[-0.042409662157297134,-0.042409658432006836,-0.04033404588699341],"type":"VEC3"},{"bufferView":178,"componentType":5126,"count":63,"type":"VEC3"},{"bufferView":179,"componentType":5126,"count":63,"type":"VEC2"},{"bufferView":180,"componentType":5123,"count":240,"type":"SCALAR"},{"bufferView":181,"componentType":5126,"count":432,"max":[0.061272360384464264,0.06810273975133896,0.06752896308898926],"min":[0.046474967151880264,-0.06777606159448624,-0.06836981326341629],"type":"VEC3"},{"bufferView":182,"componentType":5126,"count":432,"type":"VEC3"},{"bufferView":183,"componentType":5126,"count":432,"type":"VEC2"},{"bufferView":184,"componentType":5123,"count":2202,"type":"SCALAR"},{"bufferView":185,"componentType":5126,"count":297,"max":[0.02583247795701027,0.08228568732738495,0.08228568732738495],"min":[-0.06476077437400818,-0.08228568732738495,-0.08228568732738495],"type":"VEC3"},{"bufferView":186,"componentType":5126,"count":297,"type":"VEC3"},{"bufferView":187,"componentType":5126,"count":297,"type":"VEC2"},{"bufferView":188,"componentType":5123,"count":1536,"type":"SCALAR"},{"bufferView":189,"componentType":5126,"count":528,"max":[0.03687267750501633,0.08307981491088867,0.08277855813503265],"min":[0.025503717362880707,-0.08247523754835129,-0.0834445059299469],"type":"VEC3"},{"bufferView":190,"componentType":5126,"count":528,"type":"VEC3"},{"bufferView":191,"componentType":5126,"count":528,"type":"VEC2"},{"bufferView":192,"componentType":5123,"count":2880,"type":"SCALAR"},{"bufferView":193,"componentType":5126,"count":639,"max":[0.04790641739964485,0.07840573787689209,0.07810008525848389],"min":[-0.01745019294321537,-0.07779652625322342,-0.07879430800676346],"type":"VEC3"},{"bufferView":194,"componentType":5126,"count":639,"type":"VEC3"},{"bufferView":195,"componentType":5126,"count":639,"type":"VEC2"},{"bufferView":196,"componentType":5123,"count":3426,"type":"SCALAR"},{"bufferView":197,"componentType":5126,"count":176,"max":[0.00500001385807991,0.05000000074505806,0.10000000149011612],"min":[-0.00500001385807991,-0.05000000074505806,-0.10000000149011612],"type":"VEC3"},{"bufferView":198,"componentType":5126,"count":176,"type":"VEC3"},{"bufferView":199,"componentType":5126,"count":176,"type":"VEC2"},{"bufferView":200,"componentType":5123,"count":534,"type":"SCALAR"},{"bufferView":201,"componentType":5126,"count":60,"max":[-0.0010778229916468263,0.04554121941328049,0.09554122388362885],"min":[-0.0010778497671708465,-0.04554121941328049,-0.09554122388362885],"type":"VEC3"},{"bufferView":202,"componentType":5126,"count":60,"type":"VEC3"},{"bufferView":203,"componentType":5126,"count":60,"type":"VEC2"},{"bufferView":204,"componentType":5123,"count":294,"type":"SCALAR"},{"bufferView":205,"componentType":5126,"count":766,"max":[0.06960567831993103,0.13144391775131226,0.30933472514152527],"min":[-0.011335971765220165,-0.09109451621770859,-0.006858361419290304],"type":"VEC3"},{"bufferView":206,"componentType":5126,"count":766,"type":"VEC3"},{"bufferView":207,"componentType":5126,"count":766,"type":"VEC2"},{"bufferView":208,"componentType":5123,"count":3540,"type":"SCALAR"},{"bufferView":209,"componentType":5126,"count":1415,"max":[0.2835075855255127,0.14003650844097137,0.14681217074394226],"min":[-0.2835075557231903,-0.12843096256256104,-0.14681217074394226],"type":"VEC3"},{"bufferView":210,"componentType":5126,"count":1415,"type":"VEC3"},{"bufferView":211,"componentType":5126,"count":1415,"type":"VEC2"},{"bufferView":212,"componentType":5123,"count":6720,"type":"SCALAR"},{"bufferView":213,"componentType":5126,"count":1687,"max":[0.29291969537734985,0.024571459740400314,0.15325504541397095],"min":[-0.29291969537734985,-0.1406571865081787,-0.15325504541397095],"type":"VEC3"},{"bufferView":214,"componentType":5126,"count":1687,"type":"VEC3"},{"bufferView":215,"componentType":5126,"count":1687,"type":"VEC2"},{"bufferView":216,"componentType":5123,"count":7056,"type":"SCALAR"},{"bufferView":217,"componentType":5126,"count":64,"max":[0.05000000074505806,0.4047335088253021,0.05000000074505806],"min":[-0.05000000074505806,-0.4047335088253021,-0.05000000074505806],"type":"VEC3"},{"bufferView":218,"componentType":5126,"count":64,"type":"VEC3"},{"bufferView":219,"componentType":5126,"count":64,"type":"VEC2"},{"bufferView":220,"componentType":5123,"count":84,"type":"SCALAR"},{"bufferView":221,"componentType":5126,"count":72,"max":[0.31544870138168335,0.13798651099205017,0.12129679322242737],"min":[-0.31544870138168335,-0.13798651099205017,-0.12129679322242737],"type":"VEC3"},{"bufferView":222,"componentType":5126,"count":72,"type":"VEC3"},{"bufferView":223,"componentType":5126,"count":72,"type":"VEC2"},{"bufferView":224,"componentType":5123,"count":108,"type":"SCALAR"},{"bufferView":225,"componentType":5126,"count":64,"max":[0.05000000074505806,0.4047335088253021,0.45000001788139343],"min":[-0.05000000074505806,-0.4047335088253021,0.3499999940395355],"type":"VEC3"},{"bufferView":226,"componentType":5126,"count":64,"type":"VEC3"},{"bufferView":227,"componentType":5126,"count":64,"type":"VEC2"},{"bufferView":228,"componentType":5123,"count":84,"type":"SCALAR"},{"bufferView":229,"componentType":5126,"count":588,"max":[0.263778954744339,0.02897791936993599,0.028977900743484497],"min":[-0.263778954744339,-0.028977883979678154,-0.028977911919355392],"type":"VEC3"},{"bufferView":230,"componentType":5126,"count":588,"type":"VEC3"},{"bufferView":231,"componentType":5126,"count":588,"type":"VEC2"},{"bufferView":232,"componentType":5123,"count":2868,"type":"SCALAR"},{"bufferView":233,"componentType":5126,"count":1950,"max":[0.11717650294303894,0.12203598022460938,0.12203595042228699],"min":[-0.11717650294303894,-0.1220359280705452,-0.12203595042228699],"type":"VEC3"},{"bufferView":234,"componentType":5126,"count":1950,"type":"VEC3"},{"bufferView":235,"componentType":5126,"count":1950,"type":"VEC2"},{"bufferView":236,"componentType":5123,"count":9600,"type":"SCALAR"},{"bufferView":237,"componentType":5126,"count":712,"max":[0.09188970178365707,0.08759158849716187,0.0881347730755806],"min":[-0.09188970178365707,-0.0875195786356926,-0.0883575826883316],"type":"VEC3"},{"bufferView":238,"componentType":5126,"count":712,"type":"VEC3"},{"bufferView":239,"componentType":5126,"count":712,"type":"VEC2"},{"bufferView":240,"componentType":5126,"count":712,"type":"VEC2"},{"bufferView":241,"componentType":5123,"count":2304,"type":"SCALAR"},{"bufferView":242,"componentType":5126,"count":576,"max":[0.09639392793178558,0.08193881064653397,0.08218905329704285],"min":[-0.09639392793178558,-0.08190558850765228,-0.08229176700115204],"type":"VEC3"},{"bufferView":243,"componentType":5126,"count":576,"type":"VEC3"},{"bufferView":244,"componentType":5126,"count":576,"type":"VEC2"},{"bufferView":245,"componentType":5126,"count":576,"type":"VEC2"},{"bufferView":246,"componentType":5123,"count":1344,"type":"SCALAR"},{"bufferView":247,"componentType":5126,"count":495,"max":[0.25,0.25,0.12500019371509552],"min":[-0.25,-0.25,-0.12500019371509552],"type":"VEC3"},{"bufferView":248,"componentType":5126,"count":495,"type":"VEC3"},{"bufferView":249,"componentType":5126,"count":495,"type":"VEC2"},{"bufferView":250,"componentType":5123,"count":2688,"type":"SCALAR"},{"bufferView":251,"componentType":5126,"count":576,"max":[0.25,0.2499999701976776,0.12500005960464478],"min":[-0.25,-0.2499999701976776,-0.12500005960464478],"type":"VEC3"},{"bufferView":252,"componentType":5126,"count":576,"type":"VEC3"},{"bufferView":253,"componentType":5126,"count":576,"type":"VEC2"},{"bufferView":254,"componentType":5123,"count":948,"type":"SCALAR"}],"bufferViews":[{"buffer":0,"byteLength":720,"byteOffset":0,"target":34962},{"buffer":0,"byteLength":720,"byteOffset":720,"target":34962},{"buffer":0,"byteLength":480,"byteOffset":1440,"target":34962},{"buffer":0,"byteLength":384,"byteOffset":1920,"target":34963},{"buffer":0,"byteLength":1992,"byteOffset":2304,"target":34962},{"buffer":0,"byteLength":1992,"byteOffset":4296,"target":34962},{"buffer":0,"byteLength":1328,"byteOffset":6288,"target":34962},{"buffer":0,"byteLength":1344,"byteOffset":7616,"target":34963},{"buffer":0,"byteLength":912,"byteOffset":8960,"target":34962},{"buffer":0,"byteLength":912,"byteOffset":9872,"target":34962},{"buffer":0,"byteLength":608,"byteOffset":10784,"target":34962},{"buffer":0,"byteLength":468,"byteOffset":11392,"target":34963},{"buffer":0,"byteLength":3036,"byteOffset":11860,"target":34962},{"buffer":0,"byteLength":3036,"byteOffset":14896,"target":34962},{"buffer":0,"byteLength":2024,"byteOffset":17932,"target":34962},{"buffer":0,"byteLength":2112,"byteOffset":19956,"target":34963},{"buffer":0,"byteLength":1500,"byteOffset":22068,"target":34962},{"buffer":0,"byteLength":1500,"byteOffset":23568,"target":34962},{"buffer":0,"byteLength":1000,"byteOffset":25068,"target":34962},{"buffer":0,"byteLength":1152,"byteOffset":26068,"target":34963},{"buffer":0,"byteLength":1500,"byteOffset":27220,"target":34962},{"buffer":0,"byteLength":1500,"byteOffset":28720,"target":34962},{"buffer":0,"byteLength":1000,"byteOffset":30220,"target":34962},{"buffer":0,"byteLength":1500,"byteOffset":31220,"target":34962},{"buffer":0,"byteLength":1500,"byteOffset":32720,"target":34962},{"buffer":0,"byteLength":1000,"byteOffset":34220,"target":34962},{"buffer":0,"byteLength":1428,"byteOffset":35220,"target":34962},{"buffer":0,"byteLength":1428,"byteOffset":36648,"target":34962},{"buffer":0,"byteLength":952,"byteOffset":38076,"target":34962},{"buffer":0,"byteLength":1152,"byteOffset":39028,"target":34963},{"buffer":0,"byteLength":21216,"byteOffset":40180,"target":34962},{"buffer":0,"byteLength":21216,"byteOffset":61396,"target":34962},{"buffer":0,"byteLength":14144,"byteOffset":82612,"target":34962},{"buffer":0,"byteLength":16800,"byteOffset":96756,"target":34963},{"buffer":0,"byteLength":1152,"byteOffset":113556,"target":34962},{"buffer":0,"byteLength":1152,"byteOffset":114708,"target":34962},{"buffer":0,"byteLength":768,"byteOffset":115860,"target":34962},{"buffer":0,"byteLength":936,"byteOffset":116628,"target":34963},{"buffer":0,"byteLength":792,"byteOffset":117564,"target":34962},{"buffer":0,"byteLength":792,"byteOffset":118356,"target":34962},{"buffer":0,"byteLength":528,"byteOffset":119148,"target":34962},{"buffer":0,"byteLength":468,"byteOffset":119676,"target":34963},{"buffer":0,"byteLength":792,"byteOffset":120144,"target":34962},{"buffer":0,"byteLength":792,"byteOffset":120936,"target":34962},{"buffer":0,"byteLength":528,"byteOffset":121728,"target":34962},{"buffer":0,"byteLength":792,"byteOffset":122256,"target":34962},{"buffer":0,"byteLength":792,"byteOffset":123048,"target":34962},{"buffer":0,"byteLength":528,"byteOffset":123840,"target":34962},{"buffer":0,"byteLength":576,"byteOffset":124368,"target":34962},{"buffer":0,"byteLength":576,"byteOffset":124944,"target":34962},{"buffer":0,"byteLength":384,"byteOffset":125520,"target":34962},{"buffer":0,"byteLength":144,"byteOffset":125904,"target":34963},{"buffer":0,"byteLength":2220,"byteOffset":126048,"target":34962},{"buffer":0,"byteLength":2220,"byteOffset":128268,"target":34962},{"buffer":0,"byteLength":1480,"byteOffset":130488,"target":34962},{"buffer":0,"byteLength":1572,"byteOffset":131968,"target":34963},{"buffer":0,"byteLength":23256,"byteOffset":133540,"target":34962},{"buffer":0,"byteLength":23256,"byteOffset":156796,"target":34962},{"buffer":0,"byteLength":15504,"byteOffset":180052,"target":34962},{"buffer":0,"byteLength":20712,"byteOffset":195556,"target":34963},{"buffer":0,"byteLength":8268,"byteOffset":216268,"target":34962},{"buffer":0,"byteLength":8268,"byteOffset":224536,"target":34962},{"buffer":0,"byteLength":5512,"byteOffset":232804,"target":34962},{"buffer":0,"byteLength":6324,"byteOffset":238316,"target":34963},{"buffer":0,"byteLength":3456,"byteOffset":244640,"target":34962},{"buffer":0,"byteLength":3456,"byteOffset":248096,"target":34962},{"buffer":0,"byteLength":2304,"byteOffset":251552,"target":34962},{"buffer":0,"byteLength":2520,"byteOffset":253856,"target":34963},{"buffer":0,"byteLength":5184,"byteOffset":256376,"target":34962},{"buffer":0,"byteLength":5184,"byteOffset":261560,"target":34962},{"buffer":0,"byteLength":3456,"byteOffset":266744,"target":34962},{"buffer":0,"byteLength":4404,"byteOffset":270200,"target":34963},{"buffer":0,"byteLength":1236,"byteOffset":274604,"target":34962},{"buffer":0,"byteLength":1236,"byteOffset":275840,"target":34962},{"buffer":0,"byteLength":824,"byteOffset":277076,"target":34962},{"buffer":0,"byteLength":552,"byteOffset":277900,"target":34963},{"buffer":0,"byteLength":2136,"byteOffset":278452,"target":34962},{"buffer":0,"byteLength":2136,"byteOffset":280588,"target":34962},{"buffer":0,"byteLength":1424,"byteOffset":282724,"target":34962},{"buffer":0,"byteLength":1536,"byteOffset":284148,"target":34963},{"buffer":0,"byteLength":2400,"byteOffset":285684,"target":34962},{"buffer":0,"byteLength":2400,"byteOffset":288084,"target":34962},{"buffer":0,"byteLength":1600,"byteOffset":290484,"target":34962},{"buffer":0,"byteLength":1236,"byteOffset":292084,"target":34963},{"buffer":0,"byteLength":3024,"byteOffset":293320,"target":34962},{"buffer":0,"byteLength":3024,"byteOffset":296344,"target":34962},{"buffer":0,"byteLength":2016,"byteOffset":299368,"target":34962},{"buffer":0,"byteLength":2112,"byteOffset":301384,"target":34963},{"buffer":0,"byteLength":12204,"byteOffset":303496,"target":34962},{"buffer":0,"byteLength":12204,"byteOffset":315700,"target":34962},{"buffer":0,"byteLength":8136,"byteOffset":327904,"target":34962},{"buffer":0,"byteLength":10368,"byteOffset":336040,"target":34963},{"buffer":0,"byteLength":1152,"byteOffset":346408,"target":34962},{"buffer":0,"byteLength":1152,"byteOffset":347560,"target":34962},{"buffer":0,"byteLength":768,"byteOffset":348712,"target":34962},{"buffer":0,"byteLength":948,"byteOffset":349480,"target":34963},{"buffer":0,"byteLength":5664,"byteOffset":350428,"target":34962},{"buffer":0,"byteLength":5664,"byteOffset":356092,"target":34962},{"buffer":0,"byteLength":3776,"byteOffset":361756,"target":34962},{"buffer":0,"byteLength":5028,"byteOffset":365532,"target":34963},{"buffer":0,"byteLength":864,"byteOffset":370560,"target":34962},{"buffer":0,"byteLength":864,"byteOffset":371424,"target":34962},{"buffer":0,"byteLength":576,"byteOffset":372288,"target":34962},{"buffer":0,"byteLength":708,"byteOffset":372864,"target":34963},{"buffer":0,"byteLength":5664,"byteOffset":373572,"target":34962},{"buffer":0,"byteLength":5664,"byteOffset":379236,"target":34962},{"buffer":0,"byteLength":3776,"byteOffset":384900,"target":34962},{"buffer":0,"byteLength":5028,"byteOffset":388676,"target":34963},{"buffer":0,"byteLength":864,"byteOffset":393704,"target":34962},{"buffer":0,"byteLength":864,"byteOffset":394568,"target":34962},{"buffer":0,"byteLength":576,"byteOffset":395432,"target":34962},{"buffer":0,"byteLength":708,"byteOffset":396008,"target":34963},{"buffer":0,"byteLength":3204,"byteOffset":396716,"target":34962},{"buffer":0,"byteLength":3204,"byteOffset":399920,"target":34962},{"buffer":0,"byteLength":2136,"byteOffset":403124,"target":34962},{"buffer":0,"byteLength":2856,"byteOffset":405260,"target":34963},{"buffer":0,"byteLength":1536,"byteOffset":408116,"target":34962},{"buffer":0,"byteLength":1536,"byteOffset":409652,"target":34962},{"buffer":0,"byteLength":1024,"byteOffset":411188,"target":34962},{"buffer":0,"byteLength":336,"byteOffset":412212,"target":34963},{"buffer":0,"byteLength":576,"byteOffset":412548,"target":34962},{"buffer":0,"byteLength":576,"byteOffset":413124,"target":34962},{"buffer":0,"byteLength":384,"byteOffset":413700,"target":34962},{"buffer":0,"byteLength":144,"byteOffset":414084,"target":34963},{"buffer":0,"byteLength":1152,"byteOffset":414228,"target":34962},{"buffer":0,"byteLength":1152,"byteOffset":415380,"target":34962},{"buffer":0,"byteLength":768,"byteOffset":416532,"target":34962},{"buffer":0,"byteLength":936,"byteOffset":417300,"target":34963},{"buffer":0,"byteLength":1584,"byteOffset":418236,"target":34962},{"buffer":0,"byteLength":1584,"byteOffset":419820,"target":34962},{"buffer":0,"byteLength":1056,"byteOffset":421404,"target":34962},{"buffer":0,"byteLength":768,"byteOffset":422460,"target":34963},{"buffer":0,"byteLength":37056,"byteOffset":423228,"target":34962},{"buffer":0,"byteLength":37056,"byteOffset":460284,"target":34962},{"buffer":0,"byteLength":24704,"byteOffset":497340,"target":34962},{"buffer":0,"byteLength":36864,"byteOffset":522044,"target":34963},{"buffer":0,"byteLength":1584,"byteOffset":558908,"target":34962},{"buffer":0,"byteLength":1584,"byteOffset":560492,"target":34962},{"buffer":0,"byteLength":1056,"byteOffset":562076,"target":34962},{"buffer":0,"byteLength":768,"byteOffset":563132,"target":34963},{"buffer":0,"byteLength":96,"byteOffset":563900,"target":34962},{"buffer":0,"byteLength":96,"byteOffset":563996,"target":34962},{"buffer":0,"byteLength":64,"byteOffset":564092,"target":34962},{"buffer":0,"byteLength":24,"byteOffset":564156,"target":34963},{"buffer":0,"byteLength":96,"byteOffset":564180,"target":34962},{"buffer":0,"byteLength":96,"byteOffset":564276,"target":34962},{"buffer":0,"byteLength":64,"byteOffset":564372,"target":34962},{"buffer":0,"byteLength":3000,"byteOffset":564436,"target":34962},{"buffer":0,"byteLength":3000,"byteOffset":567436,"target":34962},{"buffer":0,"byteLength":2000,"byteOffset":570436,"target":34962},{"buffer":0,"byteLength":2304,"byteOffset":572436,"target":34963},{"buffer":0,"byteLength":3000,"byteOffset":574740,"target":34962},{"buffer":0,"byteLength":3000,"byteOffset":577740,"target":34962},{"buffer":0,"byteLength":2000,"byteOffset":580740,"target":34962},{"buffer":0,"byteLength":3000,"byteOffset":582740,"target":34962},{"buffer":0,"byteLength":3000,"byteOffset":585740,"target":34962},{"buffer":0,"byteLength":2000,"byteOffset":588740,"target":34962},{"buffer":0,"byteLength":4752,"byteOffset":590740,"target":34962},{"buffer":0,"byteLength":4752,"byteOffset":595492,"target":34962},{"buffer":0,"byteLength":3168,"byteOffset":600244,"target":34962},{"buffer":0,"byteLength":3840,"byteOffset":603412,"target":34963},{"buffer":0,"byteLength":22104,"byteOffset":607252,"target":34962},{"buffer":0,"byteLength":22104,"byteOffset":629356,"target":34962},{"buffer":0,"byteLength":14736,"byteOffset":651460,"target":34962},{"buffer":0,"byteLength":19560,"byteOffset":666196,"target":34963},{"buffer":0,"byteLength":16272,"byteOffset":685756,"target":34962},{"buffer":0,"byteLength":16272,"byteOffset":702028,"target":34962},{"buffer":0,"byteLength":10848,"byteOffset":718300,"target":34962},{"buffer":0,"byteLength":13416,"byteOffset":729148,"target":34963},{"buffer":0,"byteLength":46008,"byteOffset":742564,"target":34962},{"buffer":0,"byteLength":46008,"byteOffset":788572,"target":34962},{"buffer":0,"byteLength":30672,"byteOffset":834580,"target":34962},{"buffer":0,"byteLength":38352,"byteOffset":865252,"target":34963},{"buffer":0,"byteLength":33264,"byteOffset":903604,"target":34962},{"buffer":0,"byteLength":33264,"byteOffset":936868,"target":34962},{"buffer":0,"byteLength":22176,"byteOffset":970132,"target":34962},{"buffer":0,"byteLength":29952,"byteOffset":992308,"target":34963},{"buffer":0,"byteLength":756,"byteOffset":1022260,"target":34962},{"buffer":0,"byteLength":756,"byteOffset":1023016,"target":34962},{"buffer":0,"byteLength":504,"byteOffset":1023772,"target":34962},{"buffer":0,"byteLength":480,"byteOffset":1024276,"target":34963},{"buffer":0,"byteLength":5184,"byteOffset":1024756,"target":34962},{"buffer":0,"byteLength":5184,"byteOffset":1029940,"target":34962},{"buffer":0,"byteLength":3456,"byteOffset":1035124,"target":34962},{"buffer":0,"byteLength":4404,"byteOffset":1038580,"target":34963},{"buffer":0,"byteLength":3564,"byteOffset":1042984,"target":34962},{"buffer":0,"byteLength":3564,"byteOffset":1046548,"target":34962},{"buffer":0,"byteLength":2376,"byteOffset":1050112,"target":34962},{"buffer":0,"byteLength":3072,"byteOffset":1052488,"target":34963},{"buffer":0,"byteLength":6336,"byteOffset":1055560,"target":34962},{"buffer":0,"byteLength":6336,"byteOffset":1061896,"target":34962},{"buffer":0,"byteLength":4224,"byteOffset":1068232,"target":34962},{"buffer":0,"byteLength":5760,"byteOffset":1072456,"target":34963},{"buffer":0,"byteLength":7668,"byteOffset":1078216,"target":34962},{"buffer":0,"byteLength":7668,"byteOffset":1085884,"target":34962},{"buffer":0,"byteLength":5112,"byteOffset":1093552,"target":34962},{"buffer":0,"byteLength":6852,"byteOffset":1098664,"target":34963},{"buffer":0,"byteLength":2112,"byteOffset":1105516,"target":34962},{"buffer":0,"byteLength":2112,"byteOffset":1107628,"target":34962},{"buffer":0,"byteLength":1408,"byteOffset":1109740,"target":34962},{"buffer":0,"byteLength":1068,"byteOffset":1111148,"target":34963},{"buffer":0,"byteLength":720,"byteOffset":1112216,"target":34962},{"buffer":0,"byteLength":720,"byteOffset":1112936,"target":34962},{"buffer":0,"byteLength":480,"byteOffset":1113656,"target":34962},{"buffer":0,"byteLength":588,"byteOffset":1114136,"target":34963},{"buffer":0,"byteLength":9192,"byteOffset":1114724,"target":34962},{"buffer":0,"byteLength":9192,"byteOffset":1123916,"target":34962},{"buffer":0,"byteLength":6128,"byteOffset":1133108,"target":34962},{"buffer":0,"byteLength":7080,"byteOffset":1139236,"target":34963},{"buffer":0,"byteLength":16980,"byteOffset":1146316,"target":34962},{"buffer":0,"byteLength":16980,"byteOffset":1163296,"target":34962},{"buffer":0,"byteLength":11320,"byteOffset":1180276,"target":34962},{"buffer":0,"byteLength":13440,"byteOffset":1191596,"target":34963},{"buffer":0,"byteLength":20244,"byteOffset":1205036,"target":34962},{"buffer":0,"byteLength":20244,"byteOffset":1225280,"target":34962},{"buffer":0,"byteLength":13496,"byteOffset":1245524,"target":34962},{"buffer":0,"byteLength":14112,"byteOffset":1259020,"target":34963},{"buffer":0,"byteLength":768,"byteOffset":1273132,"target":34962},{"buffer":0,"byteLength":768,"byteOffset":1273900,"target":34962},{"buffer":0,"byteLength":512,"byteOffset":1274668,"target":34962},{"buffer":0,"byteLength":168,"byteOffset":1275180,"target":34963},{"buffer":0,"byteLength":864,"byteOffset":1275348,"target":34962},{"buffer":0,"byteLength":864,"byteOffset":1276212,"target":34962},{"buffer":0,"byteLength":576,"byteOffset":1277076,"target":34962},{"buffer":0,"byteLength":216,"byteOffset":1277652,"target":34963},{"buffer":0,"byteLength":768,"byteOffset":1277868,"target":34962},{"buffer":0,"byteLength":768,"byteOffset":1278636,"target":34962},{"buffer":0,"byteLength":512,"byteOffset":1279404,"target":34962},{"buffer":0,"byteLength":168,"byteOffset":1279916,"target":34963},{"buffer":0,"byteLength":7056,"byteOffset":1280084,"target":34962},{"buffer":0,"byteLength":7056,"byteOffset":1287140,"target":34962},{"buffer":0,"byteLength":4704,"byteOffset":1294196,"target":34962},{"buffer":0,"byteLength":5736,"byteOffset":1298900,"target":34963},{"buffer":0,"byteLength":23400,"byteOffset":1304636,"target":34962},{"buffer":0,"byteLength":23400,"byteOffset":1328036,"target":34962},{"buffer":0,"byteLength":15600,"byteOffset":1351436,"target":34962},{"buffer":0,"byteLength":19200,"byteOffset":1367036,"target":34963},{"buffer":0,"byteLength":8544,"byteOffset":1386236,"target":34962},{"buffer":0,"byteLength":8544,"byteOffset":1394780,"target":34962},{"buffer":0,"byteLength":5696,"byteOffset":1403324,"target":34962},{"buffer":0,"byteLength":5696,"byteOffset":1409020,"target":34962},{"buffer":0,"byteLength":4608,"byteOffset":1414716,"target":34963},{"buffer":0,"byteLength":6912,"byteOffset":1419324,"target":34962},{"buffer":0,"byteLength":6912,"byteOffset":1426236,"target":34962},{"buffer":0,"byteLength":4608,"byteOffset":1433148,"target":34962},{"buffer":0,"byteLength":4608,"byteOffset":1437756,"target":34962},{"buffer":0,"byteLength":2688,"byteOffset":1442364,"target":34963},{"buffer":0,"byteLength":5940,"byteOffset":1445052,"target":34962},{"buffer":0,"byteLength":5940,"byteOffset":1450992,"target":34962},{"buffer":0,"byteLength":3960,"byteOffset":1456932,"target":34962},{"buffer":0,"byteLength":5376,"byteOffset":1460892,"target":34963},{"buffer":0,"byteLength":6912,"byteOffset":1466268,"target":34962},{"buffer":0,"byteLength":6912,"byteOffset":1473180,"target":34962},{"buffer":0,"byteLength":4608,"byteOffset":1480092,"target":34962},{"buffer":0,"byteLength":1896,"byteOffset":1484700,"target":34963}],"samplers":[{"magFilter":9729,"minFilter":9987},{"magFilter":9729,"minFilter":9987,"wrapS":33071,"wrapT":33071}],"buffers":[{"byteLength":1486596,"uri":"io8v6.bin"}]}